<svg height="560" width="500" xmlns="http://www.w3.org/2000/svg">
<title>Your Diagram Title</title>
<!-- Generated with SankeyMATIC: 09/10/2023, 15:12:02 -->
<rect height="560" width="500" fill="#ffffff"></rect>
<g transform="translate(101.2137890625,18)">
<g id="sankey_flows">
<path id="flow13" d="M9 346.64868C199.39311 346.64868 199.39311 333.86778 389.78621 333.86778" fill="none" stroke-width="61.89647" stroke="#7f7f7f" opacity="0.45"><title>30-44 → Has not used substance(s) in last 12 months: 67.7</title></path>
<path id="flow6" d="M9 183.8623C199.39311 183.8623 199.39311 273.66272 389.78621 273.66272" fill="none" stroke-width="58.51365" stroke="#17becf" opacity="0.45"><title>15-29 → Has not used substance(s) in last 12 months: 64.0</title></path>
<path id="flow5" d="M9 139.56564C199.39311 139.56564 199.39311 164.54434 389.78621 164.54434" fill="none" stroke-width="30.07968" stroke="#17becf" opacity="0.45"><title>15-29 → Total used substances in last 12 months: 32.9</title></path>
<path id="flow12" d="M9 301.52917C199.39311 301.52917 199.39311 193.75545 389.78621 193.75545" fill="none" stroke-width="28.34255" stroke="#7f7f7f" opacity="0.45"><title>30-44 → Total used substances in last 12 months: 31.0</title></path>
<path id="flow3" d="M9 111.31452C199.39311 111.31452 199.39311 76.7743 389.78621 76.7743" fill="none" stroke-width="26.42257" stroke="#17becf" opacity="0.45"><title>15-29 → Marijuana, hashish or cannabis resin: 28.9</title></path>
<path id="flow10" d="M9 275.83801C199.39311 275.83801 199.39311 101.50546 389.78621 101.50546" fill="none" stroke-width="23.03975" stroke="#7f7f7f" opacity="0.45"><title>30-44 → Marijuana, hashish or cannabis resin: 25.2</title></path>
<path id="flow4" d="M9 216.41052C199.39311 216.41052 199.39311 404.58658 389.78621 404.58658" fill="none" stroke-width="6.58279" stroke="#17becf" opacity="0.45"><title>15-29 → Other: 7.2</title></path>
<path id="flow11" d="M9 380.65974C199.39311 380.65974 199.39311 410.9408 389.78621 410.9408" fill="none" stroke-width="6.12565" stroke="#7f7f7f" opacity="0.45"><title>30-44 → Other: 6.7</title></path>
<path id="flow8" d="M9 390.76249C199.39311 390.76249 199.39311 499.67039 389.78621 499.67039" fill="none" stroke-width="6.03422" stroke="#7f7f7f" opacity="0.45"><title>30-44 → Amphetamines, Ice or speed: 6.6</title></path>
<path id="flow2" d="M9 95.45183C199.39311 95.45183 199.39311 21.9639 389.78621 21.9639" fill="none" stroke-width="5.3028" stroke="#17becf" opacity="0.45"><title>15-29 → Ecstasy or Designer Drugs: 5.8</title></path>
<path id="flow7" d="M9 385.73397C199.39311 385.73397 199.39311 456.42558 389.78621 456.42558" fill="none" stroke-width="4.02281" stroke="#7f7f7f" opacity="0.45"><title>30-44 → Analgesics and sedatives for non-medical use: 4.4</title></path>
<path id="flow0" d="M9 221.66761C199.39311 221.66761 199.39311 452.44848 389.78621 452.44848" fill="none" stroke-width="3.93139" stroke="#17becf" opacity="0.45"><title>15-29 → Analgesics and sedatives for non-medical use: 4.3</title></path>
<path id="flow9" d="M9 263.08387C199.39311 263.08387 199.39311 25.84957 389.78621 25.84957" fill="none" stroke-width="2.46854" stroke="#7f7f7f" opacity="0.45"><title>30-44 → Ecstasy or Designer Drugs: 2.7</title></path>
<path id="flow1" d="M9 224.50187C199.39311 224.50187 199.39311 495.78472 389.78621 495.78472" fill="none" stroke-width="1.73712" stroke="#17becf" opacity="0.45"><title>15-29 → Amphetamines, Ice or speed: 1.9</title></path>
</g>
<g id="sankey_nodes">
<g class="node">
<rect id="r0" class="for_r0" x="0" y="92.80043" height="132.57" width="9" fill="#17becf" fill-opacity="1"><title>15-29:
145.0</title></rect>
</g>
<g class="node">
<rect id="r1" class="for_r1" x="389.78621" y="450.48279" height="7.9542" width="9" fill="#1f77b4" fill-opacity="1"><title>Analgesics and sedatives for non-medical use:
8.7</title></rect>
</g>
<g class="node">
<rect id="r2" class="for_r2" x="389.78621" y="494.91616" height="7.77134" width="9" fill="#ff7f0e" fill-opacity="1"><title>Amphetamines, Ice or speed:
8.5</title></rect>
</g>
<g class="node">
<rect id="r3" class="for_r3" x="389.78621" y="19.3125" height="7.77134" width="9" fill="#2ca02c" fill-opacity="1"><title>Ecstasy or Designer Drugs:
8.5</title></rect>
</g>
<g class="node">
<rect id="r4" class="for_r4" x="389.78621" y="63.56301" height="49.46232" width="9" fill="#d62728" fill-opacity="1"><title>Marijuana, hashish or cannabis resin:
54.1</title></rect>
</g>
<g class="node">
<rect id="r5" class="for_r5" x="389.78621" y="401.29519" height="12.70843" width="9" fill="#9467bd" fill-opacity="1"><title>Other:
13.9</title></rect>
</g>
<g class="node">
<rect id="r6" class="for_r6" x="389.78621" y="149.5045" height="58.42223" width="9" fill="#8c564b" fill-opacity="1"><title>Total used substances in last 12 months:
63.9</title></rect>
</g>
<g class="node">
<rect id="r7" class="for_r7" x="389.78621" y="244.40589" height="120.41013" width="9" fill="#e377c2" fill-opacity="1"><title>Has not used substance(s) in last 12 months:
131.7</title></rect>
</g>
<g class="node">
<rect id="r8" class="for_r8" x="0" y="261.84959" height="131.93" width="9" fill="#7f7f7f" fill-opacity="1"><title>30-44:
144.3</title></rect>
</g>
</g>
<g id="sankey_labels" font-family="sans-serif" font-size="16px" font-weight="400" fill="#000000">
<rect id="label0_bg" class="for_r0" x="-101.21379" y="147.05044" width="99.58109" height="23.3" rx="4" fill="#fff" fill-opacity="0.55" stroke="none" stroke-width="0" stroke-opacity="0"></rect>
<text id="label0" class="for_r0" text-anchor="end" x="-6.29754" y="159.08543" dy="5.364999999999999">15-29: 145.0</text>
<rect id="label1_bg" class="for_r1" x="21.77558" y="442.42489" width="366.37797" height="23.33906" rx="4" fill="#fff" fill-opacity="0.55" stroke="none" stroke-width="0" stroke-opacity="0"></rect>
<text id="label1" class="for_r1" text-anchor="end" x="383.48867" y="454.45989" dy="5.364999999999999">Analgesics and sedatives for non-medical use: 8.7</text>
<rect id="label2_bg" class="for_r2" x="143.62715" y="486.76681" width="244.52641" height="23.3" rx="4" fill="#fff" fill-opacity="0.55" stroke="none" stroke-width="0" stroke-opacity="0"></rect>
<text id="label2" class="for_r2" text-anchor="end" x="383.48867" y="498.80183" dy="5.364999999999999">Amphetamines, Ice or speed: 8.5</text>
<rect id="label3_bg" class="for_r3" x="157.00215" y="11.16317" width="231.15141" height="23.33906" rx="4" fill="#fff" fill-opacity="0.55" stroke="none" stroke-width="0" stroke-opacity="0"></rect>
<text id="label3" class="for_r3" text-anchor="end" x="383.48867" y="23.19817" dy="5.364999999999999">Ecstasy or Designer Drugs: 8.5</text>
<rect id="label4_bg" class="for_r4" x="77.80683" y="76.25916" width="310.34672" height="23.3" rx="4" fill="#fff" fill-opacity="0.55" stroke="none" stroke-width="0" stroke-opacity="0"></rect>
<text id="label4" class="for_r4" text-anchor="end" x="383.48867" y="88.29417" dy="5.364999999999999">Marijuana, hashish or cannabis resin: 54.1</text>
<rect id="label5_bg" class="for_r5" x="298.37712" y="395.6144" width="89.77641" height="23.3" rx="4" fill="#fff" fill-opacity="0.55" stroke="none" stroke-width="0" stroke-opacity="0"></rect>
<text id="label5" class="for_r5" text-anchor="end" x="383.48867" y="407.64941" dy="5.364999999999999">Other: 13.9</text>
<rect id="label6_bg" class="for_r6" x="54.67402" y="166.68061" width="333.47953" height="23.3" rx="4" fill="#fff" fill-opacity="0.55" stroke="none" stroke-width="0" stroke-opacity="0"></rect>
<text id="label6" class="for_r6" text-anchor="end" x="383.48867" y="178.71561" dy="5.364999999999999">Total used substances in last 12 months: 63.9</text>
<rect id="label7_bg" class="for_r7" x="13.77558" y="292.57595" width="374.37797" height="23.3" rx="4" fill="#fff" fill-opacity="0.55" stroke="none" stroke-width="0" stroke-opacity="0"></rect>
<text id="label7" class="for_r7" text-anchor="end" x="383.48867" y="304.61096" dy="5.364999999999999">Has not used substance(s) in last 12 months: 131.7</text>
<rect id="label8_bg" class="for_r8" x="-101.21379" y="315.7796" width="99.58109" height="23.3" rx="4" fill="#fff" fill-opacity="0.55" stroke="none" stroke-width="0" stroke-opacity="0"></rect>
<text id="label8" class="for_r8" text-anchor="end" x="-6.29754" y="327.8146" dy="5.364999999999999">30-44: 144.3</text>
</g>
</g></svg>